<svg xmlns="http://www.w3.org/2000/svg" viewBox="0 -8 400 400" preserveAspectRatio="xMidYMid meet">
<g transform="translate(0.000000,400.000000) scale(0.100000,-0.100000)" fill="#b4232d" stroke="none">
<path d="M1400 3025 l-595 -595 543 -543 542 -542 0 -133 0 -132 -130 0 -130
0 0 -110 0 -110 130 0 130 0 0 -165 0 -165 110 0 110 0 0 165 0 165 130 0 130
0 0 110 0 110 -130 0 -130 0 0 138 0 137 540 540 540 540 -592 592 c-326 326
-595 593 -598 593 -3 0 -273 -268 -600 -595z m1038 -158 l432 -432 -435 -435
-435 -435 -435 435 -435 435 432 432 c238 238 435 433 438 433 3 0 200 -195
438 -433z"/>
</g>
</svg>
